<svg xmlns="http://www.w3.org/2000/svg" viewBox="0 0 1200 620" role="img" aria-labelledby="title desc">
<title id="title">Árvore Frondosa SIYAYO</title>
<desc id="desc">Árvore sombreira de copa larga, folhas verdes e veios dourados sobre fundo transparente.</desc>
<defs>
  <linearGradient id="trunk" x1="0" x2="1">
    <stop offset="0" stop-color="#5a2d18"/>
    <stop offset=".45" stop-color="#a25d2b"/>
    <stop offset=".72" stop-color="#6f351b"/>
    <stop offset="1" stop-color="#3c2014"/>
  </linearGradient>
  <radialGradient id="leafA">
    <stop offset="0" stop-color="#65a942"/>
    <stop offset=".55" stop-color="#227039"/>
    <stop offset="1" stop-color="#0d4528"/>
  </radialGradient>
  <radialGradient id="leafB">
    <stop offset="0" stop-color="#86bd45"/>
    <stop offset=".5" stop-color="#2f7f3f"/>
    <stop offset="1" stop-color="#14512e"/>
  </radialGradient>
  <filter id="goldGlow" x="-50%" y="-50%" width="200%" height="200%">
    <feGaussianBlur stdDeviation="5" result="b"/>
    <feMerge><feMergeNode in="b"/><feMergeNode in="SourceGraphic"/></feMerge>
  </filter>
  <filter id="softShadow" x="-30%" y="-30%" width="160%" height="160%">
    <feDropShadow dx="0" dy="8" stdDeviation="9" flood-color="#000" flood-opacity=".35"/>
  </filter>
</defs>

<g filter="url(#softShadow)">
  <path d="M572 580 C548 510 556 440 578 370 C595 316 596 262 584 205 C613 245 627 288 624 335 C656 299 689 271 735 245 C691 293 664 337 650 383 C637 429 645 496 674 579 Z" fill="url(#trunk)"/>
  <path d="M608 386 C510 337 440 299 338 247 C405 267 483 291 588 319" fill="none" stroke="url(#trunk)" stroke-width="34" stroke-linecap="round"/>
  <path d="M624 351 C728 314 804 279 902 229 C827 291 757 335 646 392" fill="none" stroke="url(#trunk)" stroke-width="31" stroke-linecap="round"/>
  <path d="M594 289 C530 236 473 203 409 173" fill="none" stroke="url(#trunk)" stroke-width="24" stroke-linecap="round"/>
  <path d="M630 284 C691 224 746 194 814 166" fill="none" stroke="url(#trunk)" stroke-width="23" stroke-linecap="round"/>
  <path d="M615 226 C612 177 622 139 649 98" fill="none" stroke="url(#trunk)" stroke-width="19" stroke-linecap="round"/>

  <g fill="url(#leafA)">
    <ellipse cx="184" cy="279" rx="150" ry="98"/>
    <ellipse cx="301" cy="195" rx="170" ry="116"/>
    <ellipse cx="454" cy="150" rx="170" ry="115"/>
    <ellipse cx="598" cy="132" rx="184" ry="122"/>
    <ellipse cx="754" cy="151" rx="172" ry="116"/>
    <ellipse cx="901" cy="195" rx="169" ry="112"/>
    <ellipse cx="1024" cy="277" rx="147" ry="96"/>
    <ellipse cx="350" cy="300" rx="188" ry="114"/>
    <ellipse cx="555" cy="270" rx="202" ry="126"/>
    <ellipse cx="758" cy="286" rx="195" ry="122"/>
    <ellipse cx="900" cy="321" rx="164" ry="98"/>
    <ellipse cx="240" cy="347" rx="148" ry="90"/>
  </g>
  <g fill="url(#leafB)" opacity=".93">
    <ellipse cx="135" cy="332" rx="94" ry="55"/>
    <ellipse cx="264" cy="131" rx="103" ry="65"/>
    <ellipse cx="410" cy="88" rx="104" ry="64"/>
    <ellipse cx="545" cy="72" rx="105" ry="60"/>
    <ellipse cx="684" cy="70" rx="108" ry="62"/>
    <ellipse cx="822" cy="94" rx="105" ry="63"/>
    <ellipse cx="954" cy="145" rx="104" ry="65"/>
    <ellipse cx="1072" cy="222" rx="92" ry="60"/>
    <ellipse cx="465" cy="341" rx="146" ry="77"/>
    <ellipse cx="707" cy="351" rx="150" ry="82"/>
  </g>

  <g stroke="#f4cf59" stroke-width="5" fill="none" opacity=".82" filter="url(#goldGlow)">
    <path d="M607 575 C594 503 608 431 619 365 C630 296 631 220 647 113"/>
    <path d="M604 366 C501 326 424 291 329 245"/>
    <path d="M630 362 C747 318 832 274 911 226"/>
    <path d="M608 291 C550 241 487 202 411 171"/>
    <path d="M626 285 C691 228 749 193 816 164"/>
  </g>

  <g fill="#f6d76a" filter="url(#goldGlow)">
    <circle cx="243" cy="312" r="7"/><circle cx="337" cy="211" r="7"/>
    <circle cx="454" cy="178" r="6"/><circle cx="541" cy="230" r="7"/>
    <circle cx="662" cy="190" r="7"/><circle cx="762" cy="239" r="6"/>
    <circle cx="875" cy="208" r="7"/><circle cx="973" cy="304" r="7"/>
    <circle cx="396" cy="330" r="6"/><circle cx="790" cy="340" r="6"/>
    <circle cx="563" cy="116" r="6"/><circle cx="726" cy="118" r="6"/>
  </g>

  <path d="M474 580 C520 553 565 552 608 567 C658 548 717 550 763 582 C666 599 572 599 474 580Z" fill="#542318" opacity=".72"/>
</g>
</svg>